<?xml version="1.0" encoding="utf-8"?>
<!-- Generator: Adobe Illustrator 21.1.0, SVG Export Plug-In . SVG Version: 6.00 Build 0)  -->
<svg version="1.1" id="Layer_1" xmlns="http://www.w3.org/2000/svg" xmlns:xlink="http://www.w3.org/1999/xlink" x="0px" y="0px"
	 viewBox="0 0 350 140" style="enable-background:new 0 0 350 140;" xml:space="preserve">
<style type="text/css">
	.st0{fill:#474EBB;}
	.st1{fill:#E1CFB5;}
	.st2{fill:#353A85;}
	.st3{fill:#292949;}
	.st4{fill:#D67086;}
	.st5{fill:#C17E72;}
	.st6{fill:#EFBFA5;}
	.st7{fill:#BABCBE;}
	.st8{fill:#F4C7B3;}
	.st9{fill:#8CABEF;}
	.st10{fill:#F9F9F9;}
	.st11{fill:#373F8C;}
	.st12{fill:#333A7F;}
	.st13{fill:#3F4991;}
	.st14{fill:#5D66D3;}
	.st15{fill:#717DDB;}
</style>
<g>
	<path class="st0" d="M198.5,188.2c-7.5,0-15.1,0.2-22.6,1c-2.8,0.3-5.6,1-8.5,1.3c-5.7,0.5-11.3,1.6-17,2
		c-4.6,0.4-9.2,0.6-13.8,1.1c-4.3,0.5-9,0.3-13.3-0.4c-3.2-0.6-6.3-0.9-9.4-1.7c-3.5-1-7.2-1.7-10.8-1.7c-5.2,0-10.2,0-15.1,1.8
		c-1.7,0.6-3.8,1.6-5.2,2.9c-3,3-3.4,10.3-0.4,13.4c5.1,5.2,15.9,7.2,22.9,7.3c7.8,0.1,15.3-0.5,23.1-0.8c7.2-0.3,14.4-0.7,21.7-0.7
		c14.8,0,29.6,0,44.3-1c13.9-0.9,27.8-0.6,41.7-0.6c14.3,0,28.4,0.1,42.6,2c6.2,0.8,12.4,1.1,18.6,1.7c5.6,0.5,10.9,0,16.4-0.5
		c4.6-0.4,9.3-1.6,13.5-3.5c3.3-1.6,9.3-6.4,10.3-10.1c2.9-10.4-40.4-10.2-47.1-10.2c-7.4,0-14.9,0.3-22.4,0
		c-3.1-0.1-6.2-0.7-9.3-1.4c-3-0.7-6.1-0.5-9.2-0.8c-12.9-1.1-25.7-1-38.6-1C206.9,188.2,202.7,188.2,198.5,188.2z"/>
</g>
<g id="XMLID_263_">
	<g>
		<polygon class="st1" points="301.7,143.7 301.7,145.6 298.4,146.8 296.5,145.3 296.5,143.2 298.4,143.1 298.4,142.6 299,142.2 		
			"/>
	</g>
</g>
<g>
	<g>
		<g>
			<g>
				<g>
					<polygon class="st2" points="234.2,158.5 234.9,174.9 232.8,202.9 229.7,203.1 226,177.7 220.7,156.2 					"/>
				</g>
				<g>
					<polygon class="st3" points="229.9,205.2 234.6,205.2 234.8,203.6 233.1,202.5 229.7,202.7 					"/>
				</g>
			</g>
			<g>
				<g>
					<polygon class="st2" points="212.2,153.6 211.5,166 213.5,203 216.7,203.1 221.3,178.9 225.4,152.3 					"/>
				</g>
				<g>
					<polygon class="st3" points="216.5,205.3 212,205.5 211.5,204.2 213.3,202.6 216.7,202.7 					"/>
				</g>
			</g>
			<g>
				<g>
					<path class="st4" d="M230.3,116.1l-9.7-1c0,0-5.4,0.6-9.1,13.4c-2,7.1-2.7,18.4-2.8,27c0.2,1.2,1.6,6.6,7.2,5.7
						c9.7-1.6,14.8-3.1,19-2.3c3.6,0.8,3.3-4.2,2.9-7.9l-1.4-11.7L230.3,116.1z"/>
				</g>
			</g>
			<g>
				<g>
					<path class="st5" d="M228.4,104c-2.4-0.5-5-1-7.4-0.5c-0.5,0.1-1.1,0.3-1.4,0.8c-0.1,0.2-0.2,0.4-0.2,0.6
						c-0.6,2.3-1.4,5.7,0.1,7.8c0.3,0.4,0.7,0.7,1.1,1c0.6,0.3,1.2,0.6,1.8,0.7c-0.1,0.6-0.3,1.1-0.5,1.7c0.6,0.8,3.2,0.9,3.7,0.1
						c0-0.7,0.1-1.4,0.1-2.1c0.3-0.1,0.6-0.3,0.9-0.5c1.1-0.7,1.9-1.9,2.3-3.1c0.5-1.4,1.1-2.7,1.5-4c0.2-0.5,0.3-1.1,0-1.5
						c-0.3-0.5-0.9-0.7-1.4-0.8C228.7,104,228.6,104,228.4,104z"/>
				</g>
				<g>
					<path class="st2" d="M229.5,110.4c1.2-1.2,2.6-2.9,2.7-4.4c0.1-1.3-0.1-3-0.8-4.1c-0.7-1-2.4-1.6-3.4-2.2
						c-1-0.6-1.9-1.1-2.9-1.7c-0.2-0.1-0.4-0.2-0.6-0.3c-0.3,0-0.5,0-0.8,0.1c-2.3,0.6-4.5,1.2-6.8,1.7c-0.4,0.1-0.9,0.3-1.1,0.7
						c-0.1,0.3,0,0.5,0,0.8c0.3,1.2,0.7,2.4,0.9,3.5c0.2,0.9,0.2,1.8,0.8,2.5c0.6,0.6,1.5,1,2,1.8c0.4,0.6,0.5,1.3,0.8,1.9
						c1.3,2.8,6.7,2,8.5,0.3C229.1,110.8,229.3,110.6,229.5,110.4z"/>
				</g>
			</g>
		</g>
		<g>
			<polygon class="st4" points="228.2,116.9 234.9,109.7 233.3,90.1 236.3,88.8 242.4,108.5 240.3,114.6 231.3,126.6 			"/>
		</g>
		<g>
			<path class="st5" d="M235.6,89.1c0,0,0-1.8,0-1.8c0-0.7-1.6-2.2-2.1-2.7c-0.2-0.3-1.3,1.4-1.3,1.7c0,0.5,0.7,1.5,0.9,2l-0.6,0.8
				l0.8,1L235.6,89.1z"/>
		</g>
		<g>
			<polygon class="st4" points="216.3,118.4 208.7,112.1 207.8,92.5 204.7,91.6 201.1,111.9 204.1,117.6 214.5,128.4 			"/>
		</g>
		<g>
			<path class="st5" d="M205.3,91.8c0,0-0.2-1.7-0.2-1.8c-0.1-0.6,1.3-2.4,1.7-3c0.2-0.3,1.5,1.2,1.6,1.5c0.1,0.5-0.5,1.6-0.6,2.1
				l0.7,0.8l-0.7,1.1L205.3,91.8z"/>
		</g>
	</g>
</g>
<g>
	<g>
		<path class="st6" d="M97.7,106.2c-1.2-0.6-2.4-1.3-3.4-2.2c-0.3-0.3-0.7-0.7-0.6-1.1c0.1-0.5,0.8-0.6,1.3-0.5
			c1,0.1,1.9,0.4,2.7,0.8c0.2-0.1-0.1-0.4,0-0.6c0-0.1,0.2-0.1,0.3-0.1c1.4-0.1,1.9,1.8,2.4,2.7c-1,0.5-1.9,0.5-2.8,1.3L97.7,106.2z
			"/>
	</g>
	<g>
		<g>
			<g>
				<path class="st6" d="M156.2,128.3c0,0,1.7,0.3,1.8,0.3c0.6,0.1,3.5-1.3,4.1-1.7c0.3-0.2-2.3-1.5-2.5-1.6
					c-0.5-0.1-1.6,0.4-2.1,0.6l-0.7-0.7l-1.1,0.7L156.2,128.3z"/>
			</g>
			<g>
				<g>
					<polygon class="st3" points="112.9,201.2 112.6,203.1 116.2,205.6 118.4,203.9 116.7,201.7 113.1,199.3 					"/>
				</g>
				<g>
					<g>
						<polygon class="st3" points="112.8,200.6 115.5,176.2 112.2,148.8 112.9,143 127.8,142.5 128.3,151.9 125.8,176.2 
							116.5,201.8 						"/>
					</g>
				</g>
				<g>
					<polygon class="st7" points="130.2,116 136.8,119.9 142.1,127.3 156.2,125.3 156.7,129.2 140.7,134.5 132.4,131.4 					"/>
				</g>
				<g>
					<g>
						<polygon class="st3" points="138.7,145.2 138.7,169.8 133.8,201.6 130.2,201.5 128.2,172.2 123.6,142.8 						"/>
					</g>
					<g>
						<polygon class="st3" points="130.2,203 134,205 136,203.1 134.1,201.1 130.2,201.1 						"/>
					</g>
				</g>
				<g>
					<g>
						<path class="st7" d="M110.7,153.6c0-1.1,0.1-2,0.1-2.3c0.1-2.9,0.3-5.7,0.7-8.6c0.3-2.5,0.7-8.9,1.2-11.4
							c0.4-2.1,1.6-7.3,2.5-9.3c2.3-4.8,1.6-5.3,11.5-6.7c4.3-0.6,5.4,2.1,8.9,5.2c0.3,0.3,0.3,2.1,0.4,2.6c0.1,0.9,0.3,1.7,0.5,2.5
							c0.1,0.7,0.3,1.3,0.5,2l0,0c0,0,3,13.6,4.9,16.4c2,2.9,6,6.9-0.8,9.4c-1.2,0.4-2.4,0.8-3.7,1c0,0-5.6-0.6-8.4-0.6
							c-2.6,0-5.3,0.3-7.9,0.7c-1.7,0.3-3.5,0.7-5.1,1.5c-1.5,0.8-2.5,1.9-4,2.7c-0.1,0.1-0.3,0.2-0.5,0.1
							C110.6,158.8,110.6,155.8,110.7,153.6z"/>
					</g>
				</g>
				<g>
					<g>
						<path class="st6" d="M125.7,116.6c-0.4,0.4-1.5,0.8-2.8,0.7c-0.3,0-0.5-0.2-0.6-0.5c-0.2-0.7-0.4-1.4-0.5-2.2
							c-1,0-2.1-0.2-2.6-1.1c-0.1-0.3-0.2-0.6-0.2-0.9c-0.2-1.3-0.3-2.5-0.5-3.8c-0.1-0.4-0.1-0.9,0-1.3c0.2-0.7,0.9-1.3,1.6-1.6
							c1.8-0.9,3.9-1.1,5.7-0.3c0.5,0.2,0.9,0.5,1.3,0.9c0.5,0.6,0.5,1.5,0.6,2.3c0,0.7,0.1,1.5,0.1,2.2c0,0.9,0,1.9-0.7,2.4
							c-0.4,0.3-0.9,0.4-1.1,0.7C125.5,114.9,125.8,115.8,125.7,116.6z"/>
					</g>
					<g>
						<path class="st3" d="M132.8,101.4c0.1-0.4,0.2-0.7,0.3-1c0.3-0.7,0.7-1.4,0.9-2.2c0.2-0.8,0-1.7-0.6-2.2
							c-0.4-0.3-1-0.3-1.5-0.3c-1.7,0-3.4,0.5-4.8,1.4c-1.4,0.8-2.5,1.9-4.2,1.8c-1.6-0.1-2.5,0.4-3.8,1.4c-1.4,1.1-3.5,1.8-4.7,3.1
							c-0.5,0.5-0.8,1.2-1,1.9c-0.7,2.4,0.2,5.2,2.1,6.8c0.4,0.4,0.9,0.7,1.4,0.9c1,0.6,2.2,1.3,3.3,1.3c-0.3-0.9-2-3.6-1.5-4.6
							c0.8-1.5,3.4-1.9,4.9-2c1.6-0.1,3.3,0.5,4.9,0.3c1.1-0.2,2.4-1.1,3.1-2C132.5,104.8,132.4,102.6,132.8,101.4z"/>
					</g>
				</g>
				<g>
					<polygon class="st7" points="117.9,117.5 110.1,119.5 100.8,104.9 96.8,106 103.4,127 118.6,128.8 					"/>
				</g>
			</g>
		</g>
	</g>
</g>
<g>
	<g id="XMLID_264_">
		<g id="XMLID_266_">
			<g id="XMLID_280_">
				<g id="XMLID_282_">
					<g>
						<path class="st3" d="M307.6,198.4c0.3-0.4,0.7-0.6,1.2-0.5c0.4,0.1,0.8,0.4,1,0.8c0.1,0.3,0.1,0.6,0.2,0.9
							c0.1,1.5,0.1,5.1-1.9,5.6c-0.8,0.2-1.5-0.4-1.8-1.1C305.9,202.8,306.4,199.7,307.6,198.4z"/>
					</g>
				</g>
				<g id="XMLID_281_">
					<g>
						<path class="st8" d="M306.9,175.6l0.1,9.2c-0.1,4.1,0.5,8.2,0.4,12.3c0,0.9-0.3,1.9,0,2.9c0.2,0.9,1,1.1,1.7,0.6
							c1-0.6,0.9-2.1,1-3.1c0.5-2.9,1-5.8,1.5-8.7c0.2-1.4-0.3-3.4-0.1-4.9c0,0,1.5-7.7,1.5-7.7L306.9,175.6z"/>
					</g>
				</g>
			</g>
			<g id="XMLID_279_">
				<g>
					<polygon class="st3" points="317.4,160.7 313.4,178.5 312.5,195.4 306.2,195.2 304.4,148.1 316.8,148.3 					"/>
				</g>
			</g>
			<g id="XMLID_274_">
				<g id="XMLID_276_">
					<g id="XMLID_278_">
						<g>
							<path class="st3" d="M298.5,198.1c0.4-0.4,0.8-0.5,1.2-0.4c0.4,0.1,0.8,0.4,1,0.8c0.1,0.3,0.1,0.6,0.1,0.9
								c0.1,1.5-0.1,5.1-2.1,5.5c-0.9,0.2-1.5-0.5-1.7-1.3C296.6,202.4,297.3,199.3,298.5,198.1z"/>
						</g>
					</g>
					<g id="XMLID_277_">
						<g>
							<path class="st8" d="M301.8,176.9l-0.5,9.2c0,2.6-0.4,5.1-0.7,7.6c-0.2,2.4,0.1,4.8-1.1,7c-0.4,0.7-1.2,1.1-1.7,0.3
								c-0.4-0.6-0.2-1.7-0.3-2.4c-0.3-2.9-0.7-5.8-1.1-8.8c-0.2-1.4,0.4-3.4,0.4-4.8c0,0-1.1-7.8-1.1-7.8L301.8,176.9z"/>
						</g>
					</g>
				</g>
				<g id="XMLID_275_">
					<g>
						<polygon class="st3" points="293.8,159.6 293.2,176.9 296,194.4 302.4,194.6 302.2,175.6 305.6,159.9 306.7,149.6 
							296.5,148.4 						"/>
					</g>
				</g>
			</g>
			<g id="XMLID_273_">
				<g>
					<polygon class="st9" points="301.9,113 313,112.7 319.4,124.6 317.1,135.8 316.7,149.2 300.9,149.4 295.7,148.6 297.1,134.3 
						296.3,115.2 					"/>
				</g>
			</g>
			<g id="XMLID_267_">
				<g id="XMLID_271_">
					<g>
						<path class="st8" d="M303.3,102.6c2.2-4.6,8.4-2.2,9.2,2.3c0.6,2.9-2,6.3-5,6.8c0,0.1-0.3,1.1-0.4,1.1
							c-0.1,0.4-0.2,0.9-0.3,1.3c0,0.2-2.5-0.6-2.8-0.7c-0.1,0-0.2-0.1-0.2-0.2c-0.1-0.2,0.4-1.5,0.5-1.6c0-0.2,0.1-0.4,0.1-0.6
							c-1.4-0.9-2.1-2.4-2.2-4C302.2,105.5,302.7,104,303.3,102.6z"/>
					</g>
				</g>
				<g id="XMLID_268_">
					<g id="XMLID_270_">
						<g>
							<path class="st3" d="M308,98.7c0.3,0.4,0.4,0.9,0.4,1.4c0,0.3,0,0.6,0,0.8c-0.4,1.1-1.4,0.9-2.3,1.2c-1.1,0.3-2.1,1-2.7,1.9
								c-1.1,1.3-0.9,3.3-0.7,4.9c0.1,0.6,0.2,1.4-0.2,1.9c-0.5,0.5-1.5,0.3-2,0c-0.5-0.3-0.8-0.8-1.3-0.9c-0.6-0.2-1.3,0-1.5-0.5
								c-0.1-0.2,0-0.3-0.1-0.5c-0.3-0.5-1.1,0-1.5-0.4c-0.2-0.2-0.2-0.6-0.1-0.9c0.1-0.3,0.3-0.6,0.3-1c0-0.3-0.2-0.5-0.3-0.8
								c-0.2-0.5,0-1.2,0.4-1.6c0.8-0.7,2.1-0.4,2.9-1.1c0.4-0.4,0.6-0.9,0.8-1.4c0.2-0.5,0.4-1.1,0.9-1.4c0.6-0.4,1.3-0.2,1.9-0.7
								c0.3-0.3,0.6-0.7,0.9-0.9c0.5-0.3,1.4-0.5,1.9-0.6C306.5,97.7,307.4,98,308,98.7z"/>
						</g>
					</g>
					<g id="XMLID_269_">
						<g>
							<path class="st3" d="M311.2,106.8c-0.1,1.6-1.1,3.2-0.5,4.7c0.6,1.5,2.4,1.9,4,2.2c0.3,0,3.5,0.7,3.6,0.6
								c0.4-1.1,0.7-2.2,1.4-3.1c0.7-0.9,1.7-1.6,2.9-1.6c-0.3-0.1-0.4-0.5-0.4-0.8c0.1-0.3,0.3-0.6,0.4-0.9
								c0.3-0.8,0.2-1.7-0.3-2.3c-1.1-1.2-3.2-1-4.1-2.4c-0.5-0.8-0.3-2-0.6-2.9c-0.4-1.9-2.4-2.5-3.8-3.5c-1.5-1-2.9-1.7-4.8-1.6
								c-2.3,0.1-4.2,2.3-3.6,4.5c0.8,2.9,5.3,3.2,5.9,6.1C311.2,106.2,311.2,106.5,311.2,106.8z"/>
						</g>
					</g>
				</g>
			</g>
		</g>
		<g id="XMLID_265_">
			<g>
				<polygon class="st10" points="309.7,112.9 306.3,117.8 304.6,117.6 302,112.7 				"/>
			</g>
		</g>
	</g>
	<g>
		<path class="st9" d="M302,112.7l-6.2,0.3c0,0-7,3.4-7.5,3.2c-0.5-0.3-8-15.4-8-15.4l-3.7,1.2l4.6,17.4l4.5,4.6l12.7-2.1L302,112.7
			z"/>
	</g>
	<g>
		<path class="st8" d="M277.1,101.8c0,0-1-1.5-1-1.5c-0.4-0.5,0.2-2.7,0.2-3.4c0-0.4,1.9,0.4,2,0.6c0.3,0.4,0.3,1.6,0.4,2.1l1,0.4
			l-0.1,1.3L277.1,101.8z"/>
	</g>
</g>
<g>
	<g>
		<polygon class="st11" points="145.8,56.9 126.3,48 126.3,24.6 145.8,33.4 		"/>
	</g>
	<g>
		<polygon class="st12" points="145.8,56.9 165.4,48 165.4,24.6 145.8,33.4 		"/>
	</g>
	<g>
		<polygon class="st13" points="126.3,24.6 145.8,33.4 165.4,24.6 145.8,16.6 		"/>
	</g>
</g>
<g>
	<g>
		<polygon class="st14" points="301.7,43.8 285.3,36.3 285.3,16.6 301.7,24 		"/>
	</g>
	<g>
		<polygon class="st0" points="301.7,43.8 318.1,36.3 318.1,16.6 301.7,24 		"/>
	</g>
	<g>
		<polygon class="st15" points="285.3,16.6 301.7,24 318.1,16.6 301.7,9.9 		"/>
	</g>
</g>
<g>
	<path class="st4" d="M202.5,62.5l-2.3-1l0.4-0.9l2.3,1L202.5,62.5z M198.4,60.6l-2.7-1.2l0.4-0.9l2.7,1.2L198.4,60.6z M193.9,58.6
		l-2.7-1.2l0.4-0.9l2.7,1.2L193.9,58.6z M189.4,56.6l-2.7-1.2l0.4-0.9l2.7,1.2L189.4,56.6z M185,54.5l-2.7-1.2l0.4-0.9l2.7,1.2
		L185,54.5z M180.5,52.5l-2.7-1.2l0.4-0.9l2.7,1.2L180.5,52.5z M176,50.5l-2.7-1.2l0.4-0.9l2.7,1.2L176,50.5z M171.5,48.5l-2.7-1.2
		l0.4-0.9l2.7,1.2L171.5,48.5z M167.1,46.4l-2.7-1.2l0.4-0.9l2.7,1.2L167.1,46.4z M162.6,44.4l-2.7-1.2l0.4-0.9l2.7,1.2L162.6,44.4z
		 M158.1,42.4l-2.7-1.2l0.4-0.9l2.7,1.2L158.1,42.4z"/>
</g>
<g>
	<path class="st4" d="M106.3,62.6l-0.6-0.8l1.2-0.9l0.6,0.8L106.3,62.6z M109.1,60.5l-0.6-0.8l2.4-1.8l0.6,0.8L109.1,60.5z
		 M113,57.6l-0.6-0.8l2.4-1.8l0.6,0.8L113,57.6z M117,54.6l-0.6-0.8l2.4-1.8l0.6,0.8L117,54.6z M120.9,51.7l-0.6-0.8l2.4-1.8
		l0.6,0.8L120.9,51.7z M124.9,48.8l-0.6-0.8l2.4-1.8l0.6,0.8L124.9,48.8z M128.8,45.9l-0.6-0.8l2.4-1.8l0.6,0.8L128.8,45.9z
		 M132.8,42.9l-0.6-0.8l2.4-1.8l0.6,0.8L132.8,42.9z"/>
</g>
<g>
	<g>
		<polygon class="st14" points="99.4,91.5 83,84.1 83,64.3 99.4,71.8 		"/>
	</g>
	<g>
		<polygon class="st0" points="99.4,91.5 115.8,84.1 115.8,64.3 99.4,71.8 		"/>
	</g>
	<g>
		<polygon class="st15" points="83,64.3 99.4,71.8 115.8,64.3 99.4,57.6 		"/>
	</g>
</g>
<g>
	<path class="st4" d="M201.7,67.1l-0.4-0.9l0.1,0L201.7,67.1L201.7,67.1z M203.6,66.3l-0.4-0.9l2.7-1.1l0.4,0.9L203.6,66.3z
		 M208.2,64.5l-0.4-0.9l2.7-1.1l0.4,0.9L208.2,64.5z M212.8,62.7l-0.4-0.9l2.7-1.1l0.4,0.9L212.8,62.7z M217.3,60.9L217,60l2.7-1.1
		l0.4,0.9L217.3,60.9z M221.9,59.1l-0.4-0.9l2.7-1.1l0.4,0.9L221.9,59.1z M226.5,57.3l-0.4-0.9l2.7-1.1l0.4,0.9L226.5,57.3z
		 M231,55.4l-0.4-0.9l2.7-1.1l0.4,0.9L231,55.4z M235.6,53.6l-0.4-0.9l2.7-1.1l0.4,0.9L235.6,53.6z M240.2,51.8l-0.4-0.9l2.7-1.1
		l0.4,0.9L240.2,51.8z M244.8,50l-0.4-0.9l2.7-1.1l0.4,0.9L244.8,50z M249.3,48.2l-0.4-0.9l2.7-1.1l0.4,0.9L249.3,48.2z M253.9,46.4
		l-0.4-0.9l2.7-1.1l0.4,0.9L253.9,46.4z M258.5,44.5l-0.4-0.9l2.7-1.1l0.4,0.9L258.5,44.5z M263,42.7l-0.4-0.9l2.7-1.1l0.4,0.9
		L263,42.7z M267.6,40.9l-0.4-0.9l2.7-1.1l0.4,0.9L267.6,40.9z M272.2,39.1l-0.4-0.9l2.7-1.1l0.4,0.9L272.2,39.1z M276.7,37.3
		l-0.4-0.9l2.7-1.1l0.4,0.9L276.7,37.3z M281.3,35.5l-0.4-0.9l2.7-1.1l0.4,0.9L281.3,35.5z M285.9,33.6l-0.4-0.9l2.7-1.1l0.4,0.9
		L285.9,33.6z M290.4,31.8l-0.4-0.9l2.7-1.1l0.4,0.9L290.4,31.8z"/>
</g>
<g>
	<g>
		<polygon class="st14" points="218.2,94.1 184.9,79.1 184.9,39.1 218.2,54.1 		"/>
	</g>
	<g>
		<polygon class="st0" points="218.2,94.1 251.4,79.1 251.4,39.1 218.2,54.1 		"/>
	</g>
	<g>
		<polygon class="st15" points="184.9,39.1 218.2,54.1 251.4,39.1 218.2,25.5 		"/>
	</g>
</g>
<g>
	<path class="st4" d="M273.2,84.4l-2.7-1.2l0.4-0.9l2.7,1.2L273.2,84.4z M268.7,82.3l-2.7-1.2l0.4-0.9l2.7,1.2L268.7,82.3z
		 M264.2,80.3l-2.7-1.2l0.4-0.9l2.7,1.2L264.2,80.3z M259.7,78.3l-2.7-1.2l0.4-0.9l2.7,1.2L259.7,78.3z M255.2,76.3l-2.7-1.2
		l0.4-0.9l2.7,1.2L255.2,76.3z M250.7,74.3l-2.7-1.2l0.4-0.9l2.7,1.2L250.7,74.3z M246.3,72.3l-2.7-1.2l0.4-0.9l2.7,1.2L246.3,72.3z
		 M241.8,70.3l-2.7-1.2l0.4-0.9l2.7,1.2L241.8,70.3z M237.3,68.3l-2.7-1.2l0.4-0.9l2.7,1.2L237.3,68.3z"/>
</g>
<g>
	<path class="st4" d="M174.6,84.7l-0.5-0.8l2.5-1.6l0.5,0.8L174.6,84.7z M178.7,82l-0.5-0.8l2.5-1.6l0.5,0.8L178.7,82z M182.8,79.3
		l-0.5-0.8l2.5-1.6l0.5,0.8L182.8,79.3z M187,76.7l-0.5-0.8l2.5-1.6l0.5,0.8L187,76.7z M191.1,74l-0.5-0.8l2.5-1.6l0.5,0.8L191.1,74
		z M195.2,71.3l-0.5-0.8l2.5-1.6l0.5,0.8L195.2,71.3z M199.3,68.6l-0.5-0.8l2.5-1.6l0.5,0.8L199.3,68.6z"/>
</g>
<g>
	<g>
		<polygon class="st14" points="163.2,126.9 140.5,116.6 140.5,89.3 163.2,99.6 		"/>
	</g>
	<g>
		<polygon class="st0" points="163.2,126.9 185.9,116.6 185.9,89.3 163.2,99.6 		"/>
	</g>
	<g>
		<polygon class="st15" points="140.5,89.3 163.2,99.6 185.9,89.3 163.2,79.9 		"/>
	</g>
</g>
<g>
	<g>
		<polygon class="st11" points="285.9,103.2 263.2,93 263.2,65.6 285.9,75.9 		"/>
	</g>
	<g>
		<polygon class="st12" points="285.9,103.2 308.6,93 308.6,65.6 285.9,75.9 		"/>
	</g>
	<g>
		<polygon class="st13" points="263.2,65.6 285.9,75.9 308.6,65.6 285.9,56.3 		"/>
	</g>
</g>
<g>
	<path class="st8" d="M306.1,144.9c-0.7,0.7-1.6,1.3-2.6,1.2c-0.4,0-0.8-0.1-1.1-0.2c-0.3-0.1-0.6-0.1-0.8-0.3
		c-0.2-0.2-0.4-0.5-0.3-0.8c0.1-0.4,0.6-0.5,1-0.7c0.5-0.3,0.7-0.8,1.1-1.2c0.8-0.9,1.9-1,3-1.5c0,0,0.6,0.6,0.7,0.7
		c0.4,0.4,0.4,0.5,0.2,1.1C307,143.7,306.7,144.4,306.1,144.9z"/>
</g>
<g id="XMLID_272_">
	<g>
		<polygon class="st9" points="313.3,113.5 322.3,127.2 321,134.8 307.1,144.5 304.4,142.2 313.7,130.4 313.4,123 		"/>
	</g>
</g>
</svg>
